<svg width="24" height="19" viewBox="0 0 24 19" fill="none" xmlns="http://www.w3.org/2000/svg">
<g clip-path="url(#clip0_1_424)">
<path d="M15.2368 15.8173C15.2368 15.3737 15.3723 14.94 15.6261 14.5711C15.88 14.2023 16.2408 13.9148 16.6629 13.745C17.085 13.5753 17.5496 13.5308 17.9977 13.6174C18.4458 13.7039 18.8574 13.9176 19.1805 14.2312C19.5036 14.5449 19.7236 14.9446 19.8128 15.3797C19.9019 15.8148 19.8562 16.2658 19.6813 16.6756C19.5065 17.0855 19.2104 17.4358 18.8304 17.6823C18.4505 17.9287 18.0039 18.0603 17.547 18.0603C16.9343 18.0603 16.3467 17.8239 15.9135 17.4033C15.4802 16.9827 15.2368 16.4122 15.2368 15.8173ZM16.6229 15.8173C16.6229 15.9947 16.6771 16.1682 16.7787 16.3157C16.8802 16.4633 17.0245 16.5783 17.1934 16.6462C17.3622 16.7141 17.548 16.7318 17.7273 16.6972C17.9065 16.6626 18.0712 16.5772 18.2004 16.4517C18.3296 16.3262 18.4176 16.1664 18.4533 15.9923C18.489 15.8183 18.4707 15.6379 18.4007 15.4739C18.3308 15.31 18.2123 15.1699 18.0604 15.0713C17.9084 14.9727 17.7297 14.9201 17.547 14.9201C17.3027 14.9213 17.0689 15.0163 16.8966 15.1844C16.7243 15.3526 16.6275 15.5801 16.6275 15.8173H16.6229Z" fill="black"/>
<path d="M9.41064 15.8173C9.41064 15.3737 9.54613 14.94 9.79998 14.5711C10.0538 14.2023 10.4146 13.9148 10.8367 13.745C11.2589 13.5753 11.7234 13.5308 12.1715 13.6174C12.6196 13.7039 13.0313 13.9176 13.3543 14.2312C13.6774 14.5449 13.8975 14.9446 13.9866 15.3797C14.0757 15.8148 14.03 16.2658 13.8551 16.6756C13.6803 17.0855 13.3842 17.4358 13.0043 17.6823C12.6244 17.9287 12.1777 18.0603 11.7208 18.0603C11.1081 18.0603 10.5205 17.8239 10.0873 17.4033C9.65403 16.9827 9.41064 16.4122 9.41064 15.8173ZM10.7967 15.8173C10.7967 15.9947 10.8509 16.1682 10.9525 16.3157C11.054 16.4633 11.1983 16.5783 11.3672 16.6462C11.536 16.7141 11.7218 16.7318 11.9011 16.6972C12.0803 16.6626 12.245 16.5772 12.3742 16.4517C12.5035 16.3262 12.5915 16.1664 12.6271 15.9923C12.6628 15.8183 12.6445 15.6379 12.5745 15.4739C12.5046 15.31 12.3862 15.1699 12.2342 15.0713C12.0822 14.9727 11.9036 14.9201 11.7208 14.9201C11.4761 14.9207 11.2417 15.0155 11.0689 15.1837C10.8961 15.3519 10.7991 15.5797 10.7991 15.8173H10.7967Z" fill="black"/>
<path d="M9.03181 12.3346H20.1067C20.2497 12.3342 20.3891 12.2909 20.5057 12.2106C20.6224 12.1303 20.7106 12.0169 20.7582 11.886L23.6436 4.25982C23.6805 4.15847 23.6919 4.05003 23.6767 3.94355C23.6616 3.83706 23.6204 3.73564 23.5566 3.64778C23.4928 3.55993 23.4083 3.48821 23.3101 3.4386C23.2119 3.38899 23.1028 3.36292 22.9921 3.36262H9.5724C9.38859 3.36262 9.21231 3.43351 9.08234 3.5597C8.95236 3.6859 8.87935 3.85705 8.87935 4.03552C8.87935 4.21398 8.95236 4.38514 9.08234 4.51133C9.21231 4.63752 9.38859 4.70841 9.5724 4.70841H21.9965L19.6216 10.9888H9.53543L6.00088 0.527476C5.95505 0.392622 5.86646 0.27531 5.74778 0.192314C5.6291 0.109319 5.48643 0.0649106 5.34018 0.0654343H1.38055C1.19674 0.0654343 1.02046 0.136325 0.890485 0.262517C0.760513 0.38871 0.6875 0.559868 0.6875 0.738331C0.6875 0.916795 0.760513 1.08795 0.890485 1.21415C1.02046 1.34034 1.19674 1.41123 1.38055 1.41123H4.8458L8.38266 11.8703C8.42746 12.0038 8.51413 12.1203 8.63054 12.2035C8.74694 12.2868 8.88725 12.3326 9.03181 12.3346Z" fill="black"/>
</g>
<defs>
<clipPath id="clip0_1_424">
<rect width="23" height="18" fill="white" transform="translate(0.6875 0.0625)"/>
</clipPath>
</defs>
</svg>
