<svg width="13" height="13" viewBox="0 0 13 13" fill="none" xmlns="http://www.w3.org/2000/svg">
<g clip-path="url(#clip0_1_239)">
<mask id="mask0_1_239" style="mask-type:luminance" maskUnits="userSpaceOnUse" x="0" y="0" width="13" height="13">
<path d="M12.4062 0.875H0.40625V12.875H12.4062V0.875Z" fill="white"/>
</mask>
<g mask="url(#mask0_1_239)">
<path d="M6.40625 0.875C5.21956 0.875 4.05953 1.22689 3.07283 1.88618C2.08614 2.54547 1.3171 3.48254 0.862976 4.5789C0.40885 5.67526 0.29003 6.88166 0.521541 8.04554C0.753052 9.20943 1.3245 10.2785 2.16361 11.1176C3.00273 11.9568 4.07182 12.5282 5.23571 12.7597C6.3996 12.9912 7.606 12.8724 8.70235 12.4183C9.79871 11.9642 10.7358 11.1951 11.3951 10.2084C12.0543 9.22173 12.4062 8.06169 12.4062 6.875C12.4042 5.28433 11.7713 3.75941 10.6467 2.63463C9.52185 1.50986 7.99692 0.87706 6.40625 0.875ZM9.73252 5.65295L5.90031 9.48386C5.78236 9.60118 5.62298 9.66735 5.45663 9.66808C5.37343 9.66723 5.29123 9.64981 5.21483 9.61684C5.13843 9.58388 5.06936 9.53603 5.01166 9.47608L3.0722 7.47305C3.01512 7.41377 2.97028 7.34383 2.94024 7.26721C2.91019 7.1906 2.89553 7.10881 2.8971 7.02653C2.89867 6.94425 2.91643 6.86309 2.94936 6.78767C2.9823 6.71226 3.02977 6.64407 3.08906 6.587C3.20509 6.47332 3.36123 6.40993 3.52366 6.41057C3.60797 6.41048 3.69142 6.42745 3.769 6.46044C3.84659 6.49344 3.9167 6.54178 3.97512 6.60257L5.46442 8.14765L8.84647 4.76689C8.90421 4.70826 8.97309 4.66176 9.04906 4.63012C9.12503 4.59849 9.20656 4.58236 9.28885 4.58268C9.41295 4.58244 9.53433 4.61905 9.6376 4.68789C9.74087 4.75672 9.82137 4.85467 9.86889 4.96932C9.91642 5.08396 9.92883 5.21014 9.90455 5.33185C9.88027 5.45355 9.8204 5.56531 9.73252 5.65295Z" fill="#5C700E"/>
</g>
</g>
<defs>
<clipPath id="clip0_1_239">
<rect width="12" height="12" fill="white" transform="translate(0.40625 0.875)"/>
</clipPath>
</defs>
</svg>
