<svg width="13" height="13" viewBox="0 0 13 13" fill="none" xmlns="http://www.w3.org/2000/svg">
<g clip-path="url(#clip0_1_281)">
<mask id="mask0_1_281" style="mask-type:luminance" maskUnits="userSpaceOnUse" x="0" y="0" width="13" height="13">
<path d="M12.1875 0.875H0.1875V12.875H12.1875V0.875Z" fill="white"/>
</mask>
<g mask="url(#mask0_1_281)">
<path d="M6.1875 0.875C5.00081 0.875 3.84078 1.22689 2.85408 1.88618C1.86739 2.54547 1.09835 3.48254 0.644226 4.5789C0.1901 5.67526 0.0712798 6.88166 0.302791 8.04554C0.534302 9.20943 1.10575 10.2785 1.94486 11.1176C2.78398 11.9568 3.85307 12.5282 5.01696 12.7597C6.18085 12.9912 7.38725 12.8724 8.4836 12.4183C9.57996 11.9642 10.517 11.1951 11.1763 10.2084C11.8356 9.22173 12.1875 8.06169 12.1875 6.875C12.1854 5.28433 11.5526 3.75941 10.4279 2.63463C9.3031 1.50986 7.77817 0.87706 6.1875 0.875ZM9.51377 5.65295L5.68156 9.48386C5.56361 9.60118 5.40423 9.66735 5.23788 9.66808C5.15468 9.66723 5.07248 9.64981 4.99608 9.61684C4.91968 9.58388 4.85061 9.53603 4.79291 9.47608L2.85345 7.47305C2.79637 7.41377 2.75153 7.34383 2.72149 7.26721C2.69144 7.1906 2.67678 7.10881 2.67835 7.02653C2.67992 6.94425 2.69768 6.86309 2.73061 6.78767C2.76355 6.71226 2.81102 6.64407 2.87031 6.587C2.98634 6.47332 3.14248 6.40993 3.30491 6.41057C3.38922 6.41048 3.47267 6.42745 3.55025 6.46044C3.62784 6.49344 3.69795 6.54178 3.75637 6.60257L5.24567 8.14765L8.62772 4.76689C8.68546 4.70826 8.75434 4.66176 8.83031 4.63012C8.90628 4.59849 8.98781 4.58236 9.0701 4.58268C9.1942 4.58244 9.31558 4.61905 9.41885 4.68789C9.52212 4.75672 9.60262 4.85467 9.65014 4.96932C9.69767 5.08396 9.71008 5.21014 9.6858 5.33185C9.66152 5.45355 9.60165 5.56531 9.51377 5.65295Z" fill="#5C700E"/>
</g>
</g>
<defs>
<clipPath id="clip0_1_281">
<rect width="12" height="12" fill="white" transform="translate(0.1875 0.875)"/>
</clipPath>
</defs>
</svg>
