<svg width="17" height="11" viewBox="0 0 17 11" fill="none" xmlns="http://www.w3.org/2000/svg">
<g clip-path="url(#clip0_1_273)">
<path d="M8.91502 9.92093C8.69102 9.92093 8.50902 9.85093 8.36902 9.71093C8.22902 9.54293 8.15902 9.34693 8.15902 9.12293C8.15902 8.92693 8.20102 8.74493 8.28502 8.57693L10.973 1.60493C11.113 1.32493 11.281 1.08693 11.477 0.890933C11.673 0.666933 11.967 0.554932 12.359 0.554932H14.501C14.753 0.554932 14.949 0.638932 15.089 0.806932C15.229 0.974933 15.271 1.19893 15.215 1.47893L14.123 8.57693C14.095 8.91293 13.969 9.22093 13.745 9.50093C13.521 9.78093 13.199 9.92093 12.779 9.92093H8.91502ZM0.935016 9.92093C0.711016 9.92093 0.529016 9.85093 0.389016 9.71093C0.249016 9.54293 0.179016 9.34693 0.179016 9.12293C0.179016 8.92693 0.221016 8.74493 0.305016 8.57693L2.99302 1.60493C3.13302 1.32493 3.30102 1.08693 3.49702 0.890933C3.69302 0.666933 3.98702 0.554932 4.37902 0.554932H6.52102C6.74502 0.554932 6.92702 0.638932 7.06702 0.806932C7.23502 0.974933 7.29102 1.19893 7.23502 1.47893L6.14302 8.57693C6.11502 8.91293 5.98902 9.22093 5.76502 9.50093C5.54102 9.78093 5.21902 9.92093 4.79902 9.92093H0.935016Z" fill="#C41239"/>
</g>
<defs>
<clipPath id="clip0_1_273">
<rect width="16" height="10" fill="white" transform="translate(0.078125 0.375)"/>
</clipPath>
</defs>
</svg>
