<svg width="17" height="11" viewBox="0 0 17 11" fill="none" xmlns="http://www.w3.org/2000/svg">
<g clip-path="url(#clip0_1_252)">
<path d="M9.02441 9.92093C8.80041 9.92093 8.61841 9.85093 8.47841 9.71093C8.33841 9.54293 8.26841 9.34693 8.26841 9.12293C8.26841 8.92693 8.31041 8.74493 8.39441 8.57693L11.0824 1.60493C11.2224 1.32493 11.3904 1.08693 11.5864 0.890933C11.7824 0.666933 12.0764 0.554932 12.4684 0.554932H14.6104C14.8624 0.554932 15.0584 0.638932 15.1984 0.806932C15.3384 0.974933 15.3804 1.19893 15.3244 1.47893L14.2324 8.57693C14.2044 8.91293 14.0784 9.22093 13.8544 9.50093C13.6304 9.78093 13.3084 9.92093 12.8884 9.92093H9.02441ZM1.04441 9.92093C0.820406 9.92093 0.638406 9.85093 0.498406 9.71093C0.358406 9.54293 0.288406 9.34693 0.288406 9.12293C0.288406 8.92693 0.330406 8.74493 0.414406 8.57693L3.10241 1.60493C3.24241 1.32493 3.41041 1.08693 3.60641 0.890933C3.80241 0.666933 4.09641 0.554932 4.48841 0.554932H6.63041C6.85441 0.554932 7.03641 0.638932 7.17641 0.806932C7.34441 0.974933 7.40041 1.19893 7.34441 1.47893L6.25241 8.57693C6.22441 8.91293 6.09841 9.22093 5.87441 9.50093C5.65041 9.78093 5.32841 9.92093 4.90841 9.92093H1.04441Z" fill="#C41239"/>
</g>
<defs>
<clipPath id="clip0_1_252">
<rect width="16" height="10" fill="white" transform="translate(0.1875 0.375)"/>
</clipPath>
</defs>
</svg>
