<svg width="13" height="13" viewBox="0 0 13 13" fill="none" xmlns="http://www.w3.org/2000/svg">
<g clip-path="url(#clip0_1_260)">
<mask id="mask0_1_260" style="mask-type:luminance" maskUnits="userSpaceOnUse" x="0" y="0" width="13" height="13">
<path d="M12.2969 0.875H0.296875V12.875H12.2969V0.875Z" fill="white"/>
</mask>
<g mask="url(#mask0_1_260)">
<path d="M6.29688 0.875C5.11019 0.875 3.95015 1.22689 2.96345 1.88618C1.97676 2.54547 1.20773 3.48254 0.753601 4.5789C0.299475 5.67526 0.180655 6.88166 0.412166 8.04554C0.643677 9.20943 1.21512 10.2785 2.05423 11.1176C2.89335 11.9568 3.96245 12.5282 5.12634 12.7597C6.29023 12.9912 7.49662 12.8724 8.59297 12.4183C9.68933 11.9642 10.6264 11.1951 11.2857 10.2084C11.945 9.22173 12.2969 8.06169 12.2969 6.875C12.2948 5.28433 11.662 3.75941 10.5373 2.63463C9.41248 1.50986 7.88755 0.87706 6.29688 0.875ZM9.62315 5.65295L5.79094 9.48386C5.67299 9.60118 5.51361 9.66735 5.34726 9.66808C5.26406 9.66723 5.18185 9.64981 5.10545 9.61684C5.02906 9.58388 4.95999 9.53603 4.90229 9.47608L2.96282 7.47305C2.90574 7.41377 2.8609 7.34383 2.83086 7.26721C2.80081 7.1906 2.78615 7.10881 2.78772 7.02653C2.78929 6.94425 2.80705 6.86309 2.83998 6.78767C2.87292 6.71226 2.92039 6.64407 2.97968 6.587C3.09571 6.47332 3.25185 6.40993 3.41428 6.41057C3.49859 6.41048 3.58204 6.42745 3.65962 6.46044C3.73721 6.49344 3.80732 6.54178 3.86574 6.60257L5.35504 8.14765L8.73709 4.76689C8.79484 4.70826 8.86372 4.66176 8.93968 4.63012C9.01565 4.59849 9.09719 4.58236 9.17947 4.58268C9.30357 4.58244 9.42496 4.61905 9.52822 4.68789C9.63149 4.75672 9.712 4.85467 9.75951 4.96932C9.80704 5.08396 9.81945 5.21014 9.79517 5.33185C9.7709 5.45355 9.71103 5.56531 9.62315 5.65295Z" fill="#5C700E"/>
</g>
</g>
<defs>
<clipPath id="clip0_1_260">
<rect width="12" height="12" fill="white" transform="translate(0.296875 0.875)"/>
</clipPath>
</defs>
</svg>
