<svg width="17" height="12" viewBox="0 0 17 12" fill="none" xmlns="http://www.w3.org/2000/svg">
<g clip-path="url(#clip0_1_383)">
<path d="M15.4648 2.66797C15.3008 2.01172 14.7812 1.49219 14.1523 1.32812C12.9765 1 8.32813 1 8.32813 1C8.32813 1 3.65235 1 2.47657 1.32812C1.84766 1.49219 1.32813 2.01172 1.16406 2.66797C0.835937 3.81641 0.835938 6.27734 0.835938 6.27734C0.835938 6.27734 0.835937 8.71094 1.16406 9.88672C1.32813 10.543 1.84766 11.0352 2.47657 11.1992C3.65235 11.5 8.32813 11.5 8.32813 11.5C8.32813 11.5 12.9765 11.5 14.1523 11.1992C14.7812 11.0352 15.3008 10.543 15.4648 9.88672C15.7929 8.71094 15.7929 6.27734 15.7929 6.27734C15.7929 6.27734 15.7929 3.81641 15.4648 2.66797ZM6.79688 8.49219V4.0625L10.6797 6.27734L6.79688 8.49219Z" fill="white"/>
</g>
<defs>
<clipPath id="clip0_1_383">
<rect width="16" height="11" fill="white" transform="translate(0.453125 0.5)"/>
</clipPath>
</defs>
</svg>
