<svg width="15" height="12" viewBox="0 0 15 12" fill="none" xmlns="http://www.w3.org/2000/svg">
<g clip-path="url(#clip0_1_379)">
<path d="M13.0039 2.90625C13.5508 2.49609 14.0429 2.00391 14.4258 1.42969C13.9336 1.64844 13.3593 1.8125 12.7851 1.86719C13.3867 1.51172 13.8242 0.964844 14.0429 0.28125C13.4961 0.609375 12.8672 0.855469 12.2383 0.992188C11.6914 0.417969 10.9531 0.0898438 10.1328 0.0898438C8.54688 0.0898438 7.26171 1.375 7.26171 2.96094C7.26171 3.17969 7.28907 3.39844 7.34375 3.61719C4.96485 3.48047 2.83204 2.33203 1.41016 0.609375C1.16406 1.01953 1.02734 1.51172 1.02734 2.05859C1.02734 3.04297 1.51954 3.91797 2.31251 4.4375C1.84766 4.41016 1.38281 4.30078 1 4.08203V4.10938C1 5.50391 1.98438 6.65234 3.29688 6.92578C3.07812 6.98047 2.80468 7.03516 2.55859 7.03516C2.36718 7.03516 2.20312 7.00781 2.01172 6.98047C2.36719 8.12891 3.43359 8.94922 4.6914 8.97656C3.70703 9.74219 2.47656 10.207 1.13672 10.207C0.890625 10.207 0.671875 10.1797 0.453125 10.1523C1.71093 10.9727 3.21484 11.4375 4.85546 11.4375C10.1328 11.4375 13.0039 7.08984 13.0039 3.28906C13.0039 3.15234 13.0039 3.04297 13.0039 2.90625Z" fill="white"/>
</g>
<defs>
<clipPath id="clip0_1_379">
<rect width="14" height="12" fill="white" transform="translate(0.453125)"/>
</clipPath>
</defs>
</svg>
