<svg width="16" height="14" viewBox="0 0 16 14" fill="none" xmlns="http://www.w3.org/2000/svg">
<g clip-path="url(#clip0_1_375)">
<path d="M8.51562 4.00586C6.64062 4.00586 5.14648 5.5293 5.14648 7.375C5.14648 9.25 6.64062 10.7441 8.51562 10.7441C10.3613 10.7441 11.8847 9.25 11.8847 7.375C11.8847 5.5293 10.3613 4.00586 8.51562 4.00586ZM8.51562 9.57227C7.31445 9.57227 6.31835 8.60547 6.31835 7.375C6.31835 6.17383 7.28515 5.20703 8.51562 5.20703C9.71679 5.20703 10.6836 6.17383 10.6836 7.375C10.6836 8.60547 9.71679 9.57227 8.51562 9.57227ZM12.7929 3.88867C12.7929 3.44922 12.4414 3.09766 12.0019 3.09766C11.5625 3.09766 11.2109 3.44922 11.2109 3.88867C11.2109 4.32812 11.5625 4.67969 12.0019 4.67969C12.4414 4.67969 12.7929 4.32812 12.7929 3.88867ZM15.0195 4.67969C14.9609 3.625 14.7265 2.6875 13.9648 1.92578C13.2031 1.16406 12.2656 0.929688 11.2109 0.871094C10.127 0.8125 6.875 0.8125 5.79101 0.871094C4.73632 0.929688 3.82812 1.16406 3.0371 1.92578C2.27539 2.6875 2.04101 3.625 1.98242 4.67969C1.92383 5.76367 1.92383 9.01562 1.98242 10.0996C2.04101 11.1543 2.27539 12.0625 3.0371 12.8535C3.82812 13.6152 4.73632 13.8496 5.79101 13.9082C6.875 13.9668 10.127 13.9668 11.2109 13.9082C12.2656 13.8496 13.2031 13.6152 13.9648 12.8535C14.7265 12.0625 14.9609 11.1543 15.0195 10.0996C15.0781 9.01562 15.0781 5.76367 15.0195 4.67969ZM13.6133 11.2422C13.4082 11.8281 12.9394 12.2676 12.3828 12.502C11.5039 12.8535 9.45312 12.7656 8.51562 12.7656C7.54882 12.7656 5.49804 12.8535 4.64843 12.502C4.0625 12.2676 3.62304 11.8281 3.38867 11.2422C3.0371 10.3926 3.125 8.3418 3.125 7.375C3.125 6.4375 3.0371 4.38672 3.38867 3.50781C3.62304 2.95117 4.0625 2.51172 4.64843 2.27734C5.49804 1.92578 7.54882 2.01367 8.51562 2.01367C9.45312 2.01367 11.5039 1.92578 12.3828 2.27734C12.9394 2.48242 13.3789 2.95117 13.6133 3.50781C13.9648 4.38672 13.8769 6.4375 13.8769 7.375C13.8769 8.3418 13.9648 10.3926 13.6133 11.2422Z" fill="white"/>
</g>
<defs>
<clipPath id="clip0_1_375">
<rect width="15" height="14" fill="white" transform="translate(0.953125)"/>
</clipPath>
</defs>
</svg>
