<svg width="20" height="19" viewBox="0 0 20 19" fill="none" xmlns="http://www.w3.org/2000/svg">
<g clip-path="url(#clip0_1_414)">
<mask id="mask0_1_414" style="mask-type:luminance" maskUnits="userSpaceOnUse" x="0" y="0" width="20" height="19">
<path d="M19.5156 0.0625H0.515625V18.0625H19.5156V0.0625Z" fill="white"/>
</mask>
<g mask="url(#mask0_1_414)">
<path d="M10.014 10.2573C9.05653 10.2578 8.12038 9.95911 7.32404 9.39906C6.5277 8.83901 5.90697 8.04273 5.54032 7.11096C5.17367 6.17919 5.07759 5.15379 5.26427 4.1645C5.45095 3.17521 5.91199 2.26648 6.58905 1.55325C7.2661 0.840032 8.12877 0.354369 9.0679 0.157719C10.007 -0.0389318 10.9804 0.0622645 11.8649 0.448497C12.7494 0.834729 13.5053 1.48863 14.037 2.32751C14.5687 3.16639 14.8522 4.15253 14.8517 5.16118C14.8504 6.51232 14.3403 7.80772 13.4333 8.76312C12.5264 9.71851 11.2966 10.2559 10.014 10.2573ZM10.014 1.44852C9.31687 1.44801 8.63522 1.6653 8.05531 2.07294C7.47539 2.48058 7.02326 3.06024 6.75613 3.73859C6.48899 4.41694 6.41885 5.16352 6.55455 5.88388C6.69026 6.60424 7.02574 7.26602 7.51854 7.78551C8.01134 8.305 8.63933 8.65884 9.32306 8.80231C10.0068 8.94578 10.7155 8.87242 11.3597 8.59149C12.0038 8.31057 12.5544 7.8347 12.9418 7.2241C13.3292 6.6135 13.5359 5.89559 13.5359 5.16118C13.5353 4.17719 13.1641 3.23366 12.5038 2.53763C11.8435 1.84159 10.9481 1.44991 10.014 1.44852Z" fill="black"/>
<path d="M18.8565 18.0625H1.17225C1.07837 18.063 0.985456 18.0425 0.899688 18.0023C0.813921 17.9621 0.737264 17.9031 0.674799 17.8293C0.612883 17.7557 0.566629 17.669 0.539173 17.575C0.511716 17.481 0.503689 17.3819 0.515612 17.2843C1.03296 12.7673 2.973 10.4564 6.44767 10.2101C6.60251 10.2017 6.75534 10.2498 6.88045 10.3463C7.78044 11.0638 8.87821 11.4521 10.0069 11.4521C11.1355 11.4521 12.2333 11.0638 13.1333 10.3463C13.2595 10.2502 13.413 10.2022 13.5686 10.2101C17.0507 10.4485 18.9883 12.7594 19.5056 17.2843C19.5166 17.382 19.5078 17.4811 19.48 17.575C19.4521 17.6689 19.4058 17.7555 19.344 17.8293C19.283 17.9023 19.208 17.9609 19.124 18.0011C19.0399 18.0413 18.9488 18.0622 18.8565 18.0625ZM1.94328 16.6738H18.1103C17.583 13.4538 16.2101 11.8765 13.7328 11.6223C12.6465 12.4221 11.3533 12.851 10.028 12.851C8.7028 12.851 7.40952 12.4221 6.32331 11.6223C3.83358 11.8765 2.46062 13.4538 1.93333 16.6738H1.94328Z" fill="black"/>
</g>
</g>
<defs>
<clipPath id="clip0_1_414">
<rect width="19" height="18" fill="white" transform="translate(0.515625 0.0625)"/>
</clipPath>
</defs>
</svg>
