<svg width="59" height="61" viewBox="0 0 59 61" fill="none" xmlns="http://www.w3.org/2000/svg">
<g clip-path="url(#clip0_1_74)">
<mask id="mask0_1_74" style="mask-type:luminance" maskUnits="userSpaceOnUse" x="0" y="0" width="59" height="60">
<path d="M58.5238 0.125H0.84375V59.905H58.5238V0.125Z" fill="white"/>
</mask>
<g mask="url(#mask0_1_74)">
<path d="M43.0235 9.32495H40.1436V11.625H43.0235V9.32495Z" fill="black"/>
<path d="M37.0137 9.32495H34.1338V11.625H37.0137V9.32495Z" fill="black"/>
<path d="M31.0138 9.32495H28.1338V11.625H31.0138V9.32495Z" fill="black"/>
<path d="M53.804 50.795H51.014C54.924 48.475 57.4939 44.635 57.4939 40.285V30.915C57.4953 30.7645 57.4669 30.6151 57.4101 30.4757C57.3534 30.3362 57.2696 30.2093 57.1637 30.1024C57.0577 29.9955 56.9315 29.9106 56.7925 29.8527C56.6536 29.7948 56.5046 29.765 56.354 29.765H43.584V25.665H48.4939C48.6437 25.665 48.7919 25.6355 48.9302 25.5782C49.0686 25.5209 49.1941 25.437 49.3 25.3311C49.4058 25.2252 49.4899 25.0996 49.5472 24.9613C49.6045 24.8229 49.634 24.6747 49.634 24.525V19.525H52.0439C52.3489 19.525 52.6415 19.4038 52.8572 19.1882C53.0728 18.9725 53.194 18.68 53.194 18.375V11.625H56.354V9.325H53.164C53.0335 6.84433 51.9572 4.508 50.1566 2.79669C48.3559 1.08538 45.9681 0.129246 43.484 0.125H10.5439C7.97213 0.127647 5.50649 1.15046 3.68796 2.96899C1.86943 4.78752 0.846616 7.25321 0.843968 9.825C0.848443 12.1571 1.69122 14.4099 3.2186 16.1723C4.74599 17.9346 6.8561 19.0891 9.16391 19.425C10.0751 19.8016 10.8547 20.4393 11.4045 21.2578C11.9543 22.0762 12.2499 23.039 12.2541 24.025L10.0539 46.185V46.295C10.0513 47.4877 9.57635 48.6307 8.73301 49.4741C7.88966 50.3174 6.74659 50.7924 5.55393 50.795C4.30476 50.795 3.10678 51.2912 2.22348 52.1745C1.34019 53.0578 0.843968 54.2558 0.843968 55.505V58.725C0.838632 58.8764 0.863565 59.0273 0.91721 59.1689C0.970856 59.3106 1.05207 59.4401 1.15635 59.55C1.26062 59.6598 1.38586 59.7478 1.52451 59.8088C1.66317 59.8697 1.81252 59.9024 1.96396 59.905H57.3439C57.4996 59.9092 57.6544 59.8815 57.799 59.8235C57.9435 59.7656 58.0746 59.6786 58.1842 59.5681C58.2938 59.4575 58.3797 59.3257 58.4364 59.1807C58.4931 59.0357 58.5196 58.8806 58.514 58.725V55.505C58.514 54.2558 58.0177 53.0578 57.1344 52.1745C56.2511 51.2912 55.0531 50.795 53.804 50.795ZM55.2039 40.285C55.2039 46.085 49.4739 50.795 42.4339 50.795C35.3939 50.795 29.6639 46.085 29.6639 40.285V32.055H55.2039V40.285ZM41.284 29.725H28.514C28.3634 29.725 28.2144 29.7548 28.0755 29.8127C27.9365 29.8706 27.8104 29.9555 27.7043 30.0624C27.5983 30.1693 27.5145 30.2962 27.4578 30.4357C27.4011 30.5751 27.3726 30.7245 27.3739 30.875V40.245C27.3739 44.595 29.944 48.435 33.854 50.755H31.674C29.4097 50.7523 27.2391 49.8518 25.6381 48.2508C24.0371 46.6498 23.1367 44.4791 23.1341 42.215V28.075C23.1367 25.8109 24.0371 23.6402 25.6381 22.0392C27.2391 20.4382 29.4097 19.5376 31.674 19.535H34.424V24.535C34.4266 24.8383 34.5489 25.1282 34.7643 25.3417C34.9797 25.5552 35.2707 25.675 35.574 25.675H41.284V29.725ZM47.3439 23.335H36.7239V19.495H47.3439V23.335ZM3.13401 9.825C3.13929 7.86137 3.92165 5.97967 5.31015 4.59117C6.69866 3.20267 8.58029 2.42028 10.5439 2.415H43.484C45.4485 2.41764 47.3316 3.19919 48.7206 4.58826C50.1097 5.97733 50.8913 7.86056 50.8941 9.825V17.235H10.5439C8.57948 17.2324 6.6963 16.4508 5.30723 15.0617C3.91815 13.6727 3.13665 11.7894 3.13401 9.825ZM56.2239 57.615H3.13401V55.505C3.13665 54.8649 3.39274 54.2519 3.84629 53.8003C4.29984 53.3486 4.91383 53.095 5.55393 53.095C7.34532 53.0924 9.06343 52.3831 10.3348 51.1211C11.6062 49.8591 12.3281 48.1463 12.344 46.355L14.544 24.145C14.554 24.0687 14.554 23.9913 14.544 23.915C14.5211 22.3229 13.9727 20.783 12.9839 19.535H24.9839C23.6836 20.5462 22.6319 21.8415 21.9091 23.3217C21.1863 24.8019 20.8118 26.4278 20.8139 28.075V42.255C20.8165 45.1274 21.958 47.8815 23.9883 49.9136C26.0185 51.9456 28.7717 53.0897 31.6441 53.095H53.7741C54.4142 53.095 55.0282 53.3486 55.4817 53.8003C55.9353 54.2519 56.1912 54.8649 56.194 55.505L56.2239 57.615Z" fill="black"/>
</g>
</g>
<defs>
<clipPath id="clip0_1_74">
<rect width="58" height="60" fill="white" transform="translate(0.84375 0.125)"/>
</clipPath>
</defs>
</svg>
