<svg width="78" height="73" viewBox="0 0 78 73" fill="none" xmlns="http://www.w3.org/2000/svg">
<g clip-path="url(#clip0_1_104)">
<mask id="mask0_1_104" style="mask-type:luminance" maskUnits="userSpaceOnUse" x="0" y="0" width="78" height="72">
<path d="M77.5975 0.125H0.9375V71.595H77.5975V0.125Z" fill="white"/>
</mask>
<g mask="url(#mask0_1_104)">
<path d="M75.5773 0.125H51.4673C50.9369 0.125 50.4282 0.335712 50.0531 0.710785C49.678 1.08586 49.4673 1.59457 49.4673 2.125V7.695C49.4673 8.22543 49.678 8.73414 50.0531 9.10921C50.4282 9.48428 50.9369 9.695 51.4673 9.695H57.3073V11.975C57.3099 12.2783 57.4323 12.5682 57.6477 12.7817C57.8631 12.9952 58.154 13.115 58.4573 13.115H62.3773V61.925C62.376 62.8942 62.1839 63.8536 61.8118 64.7484C61.4397 65.6433 60.895 66.4562 60.2087 67.1405C59.5225 67.8249 58.7081 68.3674 57.8123 68.7371C56.9164 69.1067 55.9565 69.2963 54.9873 69.295C53.0335 69.2924 51.1604 68.515 49.7788 67.1335C48.3972 65.7519 47.62 63.8788 47.6173 61.925V16.285C47.612 12.6886 46.1802 9.24108 43.6362 6.69895C41.0922 4.15681 37.6438 2.72764 34.0474 2.725C30.9079 2.72558 27.8659 3.81549 25.4404 5.80876C23.0149 7.80204 21.3562 10.5752 20.7473 13.655H18.2373C17.934 13.6576 17.6441 13.78 17.4305 13.9953C17.217 14.2107 17.0973 14.5017 17.0973 14.805V18.525H16.3973C16.0923 18.525 15.7998 18.6462 15.5841 18.8618C15.3684 19.0775 15.2473 19.37 15.2473 19.675V24.615C12.2945 25.8609 9.77253 27.9467 7.99475 30.6133C6.21697 33.28 5.26166 36.4101 5.24731 39.615V50.005C4.10729 50.0488 3.02807 50.5307 2.2345 51.3503C1.44093 52.1699 0.994191 53.2642 0.987305 54.405V67.155C0.989946 68.3291 1.4575 69.4543 2.28772 70.2846C3.11793 71.1148 4.24326 71.5824 5.41736 71.585H37.9272C39.1013 71.5824 40.2267 71.1148 41.0569 70.2846C41.8871 69.4543 42.3547 68.3291 42.3573 67.155V54.405C42.3496 53.2456 41.8876 52.1355 41.0706 51.3128C40.2535 50.4902 39.1466 50.0207 37.9873 50.005V39.655C37.973 36.4501 37.0176 33.32 35.2399 30.6533C33.4621 27.9867 30.9402 25.9009 27.9873 24.655V19.715C27.9886 19.5645 27.9601 19.4151 27.9034 19.2757C27.8467 19.1362 27.763 19.0093 27.657 18.9024C27.551 18.7955 27.4249 18.7106 27.2859 18.6527C27.1469 18.5948 26.9978 18.565 26.8473 18.565H25.9873V14.805C25.9873 14.5 25.8662 14.2075 25.6505 13.9918C25.4348 13.7762 25.1423 13.655 24.8373 13.655H23.1273C23.7178 11.1947 25.1188 9.00474 27.1051 7.4375C29.0914 5.87027 31.5472 5.01698 34.0773 5.015C37.0654 5.01765 39.9305 6.20587 42.0435 8.31883C44.1564 10.4318 45.3446 13.2968 45.3473 16.285V61.925C45.3526 64.4819 46.3693 66.9329 48.1754 68.7428C49.9816 70.5527 52.4304 71.5744 54.9873 71.585C57.5485 71.5824 60.004 70.5638 61.8151 68.7527C63.6261 66.9417 64.6447 64.4862 64.6473 61.925V13.155H69.2473C69.5506 13.155 69.8416 13.0352 70.057 12.8217C70.2724 12.6082 70.3947 12.3183 70.3973 12.015V9.735H75.5573C76.0877 9.735 76.5965 9.52428 76.9716 9.14921C77.3466 8.77414 77.5573 8.26543 77.5573 7.735V2.165C77.5626 1.90068 77.5155 1.63794 77.4186 1.39196C77.3217 1.14599 77.177 0.921659 76.9929 0.731953C76.8088 0.542247 76.5888 0.390928 76.3458 0.286747C76.1029 0.182566 75.8416 0.127591 75.5773 0.125ZM28.1273 27.245C27.4847 28.3991 26.5449 29.3602 25.4054 30.0284C24.2659 30.6966 22.9683 31.0476 21.6473 31.045C20.3256 31.0456 19.0277 30.6926 17.8883 30.0227C16.7489 29.3528 15.8095 28.3903 15.1674 27.235C17.1662 26.1847 19.3906 25.6367 21.6486 25.6384C23.9065 25.6402 26.1301 26.1916 28.1273 27.245ZM3.2373 67.155V54.405C3.23715 53.8486 3.45468 53.3143 3.84338 52.9163C4.23209 52.5182 4.76106 52.2881 5.31726 52.275V69.275C4.76279 69.262 4.23535 69.0332 3.84692 68.6373C3.4585 68.2414 3.23976 67.7096 3.2373 67.155ZM15.6873 69.295V49.645C15.6873 48.0537 16.3195 46.5276 17.4447 45.4024C18.5699 44.2771 20.096 43.645 21.6873 43.645C23.2786 43.645 24.8047 44.2771 25.9299 45.4024C27.0551 46.5276 27.6873 48.0537 27.6873 49.645V69.295H15.6873ZM39.9873 54.405V67.155C39.9859 67.6974 39.7786 68.219 39.4073 68.6144C39.0361 69.0098 38.5285 69.2495 37.9873 69.285V52.285C38.5277 52.318 39.0351 52.5556 39.4066 52.9494C39.7781 53.3432 39.9858 53.8636 39.9873 54.405ZM35.6674 39.635V69.295H29.8773V49.645C29.8773 47.4543 29.0071 45.3533 27.458 43.8043C25.909 42.2552 23.808 41.385 21.6173 41.385C19.4274 41.3876 17.328 42.2587 15.7795 43.8072C14.2311 45.3557 13.3599 47.4551 13.3573 49.645V69.295H7.57727V51.575C7.63669 51.4394 7.66742 51.293 7.66736 51.145C7.66742 50.997 7.63669 50.8506 7.57727 50.715V39.655C7.57413 37.4697 8.08265 35.3141 9.06201 33.3606C10.0414 31.407 11.4644 29.7099 13.2173 28.405C14.0656 29.8926 15.2922 31.1293 16.7727 31.9899C18.2532 32.8504 19.9349 33.3041 21.6473 33.305C23.3615 33.3059 25.0452 32.853 26.5276 31.9924C28.01 31.1317 29.2382 29.894 30.0873 28.405C31.8312 29.7163 33.2459 31.4155 34.2196 33.3681C35.1933 35.3207 35.6992 37.4731 35.6973 39.655L35.6674 39.635ZM24.2874 23.535L23.6073 23.425L23.0374 23.365C22.5674 23.365 22.0973 23.295 21.6173 23.295C21.1373 23.295 20.6773 23.295 20.2073 23.365L19.6473 23.425L18.9272 23.535C18.4572 23.615 17.9974 23.715 17.5374 23.835V20.835H25.7073V23.835C25.2673 23.735 24.7973 23.635 24.3173 23.555L24.2874 23.535ZM23.6473 18.535H19.3773V15.965H23.6473V18.535ZM68.0873 10.875H59.5773V9.745H68.0873V10.875ZM75.2773 7.455H51.7073V2.455H75.2773V7.455Z" fill="black"/>
<path d="M21.6475 47.735C20.5715 47.7376 19.5404 48.1662 18.7795 48.927C18.0187 49.6879 17.59 50.719 17.5874 51.795C17.59 52.871 18.0187 53.9021 18.7795 54.6629C19.5404 55.4237 20.5715 55.8523 21.6475 55.855C22.7242 55.855 23.7569 55.4272 24.5183 54.6658C25.2797 53.9044 25.7074 52.8718 25.7074 51.795C25.7074 50.7182 25.2797 49.6855 24.5183 48.9241C23.7569 48.1627 22.7242 47.735 21.6475 47.735ZM21.6475 53.565C21.4155 53.565 21.1857 53.5191 20.9716 53.4301C20.7574 53.341 20.563 53.2105 20.3994 53.046C20.2359 52.8815 20.1064 52.6863 20.0186 52.4716C19.9307 52.2569 19.8861 52.027 19.8875 51.795C19.8875 51.3282 20.0729 50.8805 20.403 50.5505C20.733 50.2204 21.1807 50.035 21.6475 50.035C21.8794 50.0337 22.1093 50.0782 22.324 50.1661C22.5387 50.2539 22.7339 50.3834 22.8984 50.5469C23.0629 50.7105 23.1934 50.905 23.2825 51.1191C23.3715 51.3333 23.4175 51.563 23.4175 51.795C23.4175 52.2644 23.231 52.7146 22.899 53.0466C22.5671 53.3785 22.1169 53.565 21.6475 53.565Z" fill="black"/>
<path d="M20.5677 36.015H17.9077V38.315H20.5677V36.015Z" fill="black"/>
<path d="M25.8875 36.015H23.2275V38.315H25.8875V36.015Z" fill="black"/>
</g>
</g>
<defs>
<clipPath id="clip0_1_104">
<rect width="77" height="72" fill="white" transform="translate(0.9375 0.125)"/>
</clipPath>
</defs>
</svg>
