<svg width="58" height="68" viewBox="0 0 58 68" fill="none" xmlns="http://www.w3.org/2000/svg">
<g clip-path="url(#clip0_1_38)">
<mask id="mask0_1_38" style="mask-type:luminance" maskUnits="userSpaceOnUse" x="0" y="0" width="57" height="68">
<path d="M56.9906 0.625H0.640625V67.555H56.9906V0.625Z" fill="white"/>
</mask>
<g mask="url(#mask0_1_38)">
<path d="M23.9305 39.875C23.9526 40.2666 23.8719 40.6571 23.6965 41.008C23.5211 41.3588 23.257 41.6577 22.9305 41.875L23.4904 42.875L24.0305 43.875C24.708 43.4559 25.2628 42.8653 25.6386 42.1629C26.0144 41.4604 26.1979 40.6711 26.1705 39.875C26.0256 38.4922 25.4238 37.1973 24.4604 36.195C23.7537 35.4878 23.2823 34.5798 23.1104 33.595C23.0922 33.0945 23.1788 32.5957 23.3648 32.1307C23.5508 31.6657 23.8321 31.2448 24.1905 30.895L22.7905 29.075C22.1485 29.6376 21.6369 30.3335 21.2915 31.1142C20.946 31.8948 20.7751 32.7414 20.7905 33.595C20.9294 35.0952 21.5706 36.5046 22.6104 37.595C23.2661 38.2078 23.7255 39.0012 23.9305 39.875Z" fill="black"/>
<path d="M28.8807 39.875C28.9028 40.2666 28.8221 40.6571 28.6467 41.008C28.4713 41.3588 28.2072 41.6577 27.8807 41.875L28.4407 42.875L28.9807 43.875C29.6582 43.4559 30.213 42.8653 30.5888 42.1629C30.9646 41.4604 31.1481 40.6711 31.1207 39.875C30.9758 38.4922 30.3741 37.1973 29.4107 36.195C28.704 35.4878 28.2326 34.5798 28.0607 33.595C28.0425 33.0945 28.129 32.5957 28.315 32.1307C28.501 31.6657 28.7823 31.2448 29.1407 30.895L27.7407 29.075C27.0987 29.6376 26.5872 30.3335 26.2418 31.1142C25.8963 31.8948 25.7253 32.7414 25.7407 33.595C25.8796 35.0952 26.521 36.5046 27.5607 37.595C28.2164 38.2078 28.6757 39.0012 28.8807 39.875Z" fill="black"/>
<path d="M34.4708 39.875C34.4983 40.2619 34.4253 40.6495 34.2589 40.9999C34.0924 41.3503 33.8382 41.6518 33.5208 41.875L34.0808 42.875L34.6208 43.875C35.2984 43.4559 35.8531 42.8653 36.229 42.1629C36.6048 41.4604 36.7883 40.6711 36.7608 39.875C36.616 38.4922 36.0143 37.1973 35.0509 36.195C34.3441 35.4878 33.8726 34.5798 33.7008 33.595C33.6825 33.0945 33.7691 32.5957 33.9551 32.1307C34.1411 31.6657 34.4224 31.2448 34.7808 30.895L33.3808 29.075C32.7388 29.6376 32.2273 30.3335 31.8819 31.1142C31.5365 31.8948 31.3655 32.7414 31.3808 33.595C31.5194 35.0973 32.1647 36.5078 33.2108 37.595C33.8421 38.2173 34.2798 39.0092 34.4708 39.875Z" fill="black"/>
<path d="M55.8805 0.625044H1.88054C1.73 0.623723 1.58067 0.652238 1.44121 0.708937C1.30174 0.765635 1.17484 0.849398 1.06791 0.955389C0.960995 1.06138 0.876196 1.1875 0.818282 1.32646C0.760367 1.46543 0.730507 1.6145 0.730513 1.76505V66.365C0.729179 66.5164 0.758031 66.6666 0.815352 66.8067C0.872672 66.9468 0.957321 67.0741 1.06437 67.1812C1.17143 67.2882 1.29876 67.3729 1.43889 67.4302C1.57901 67.4875 1.72914 67.5164 1.88054 67.515H55.8805C56.1785 67.5047 56.4609 67.379 56.668 67.1644C56.8751 66.9498 56.9907 66.6632 56.9905 66.365V1.76505C56.9881 1.46859 56.8713 1.18451 56.6644 0.972094C56.4576 0.759681 56.1768 0.635346 55.8805 0.625044ZM54.6906 15.365V56.725H2.93058V15.365H54.6906ZM54.6906 13.065H25.2605V2.91504H54.6906V13.065ZM2.93058 2.93505H22.9306V13.065H2.93058V2.93505ZM54.6906 65.275H2.93058V59.025H54.6906V65.275Z" fill="black"/>
<path d="M28.8109 53.5651C31.7345 53.5686 34.61 52.8222 37.1627 51.397C39.7154 49.9718 41.8598 47.9157 43.3908 45.4251L44.0908 45.8051C44.2572 45.8926 44.4428 45.9373 44.6308 45.9351C44.7459 45.9332 44.8601 45.9164 44.9708 45.8851C45.114 45.8408 45.2471 45.7685 45.3622 45.6724C45.4772 45.5762 45.5719 45.4582 45.6408 45.3251C47.0915 42.5863 47.8502 39.5343 47.8508 36.4351C47.8502 33.3358 47.0915 30.2838 45.6408 27.5451C45.5713 27.4111 45.4759 27.2922 45.3601 27.1954C45.2443 27.0986 45.1104 27.0257 44.9662 26.9811C44.822 26.9364 44.6704 26.9209 44.5201 26.9353C44.3699 26.9497 44.2239 26.9938 44.0908 27.0651L43.3808 27.4451C41.8492 24.9572 39.7061 22.903 37.1556 21.4781C34.6052 20.0532 31.7324 19.3051 28.8109 19.3051C24.2711 19.313 19.9196 21.1206 16.7104 24.3317C13.5012 27.5428 11.6962 31.8953 11.6909 36.4351C11.6962 40.9749 13.5012 45.3274 16.7104 48.5384C19.9196 51.7495 24.2711 53.5571 28.8109 53.5651ZM44.1208 29.6551C45.0658 31.7908 45.5562 34.0997 45.5609 36.4351C45.5562 38.7705 45.0658 41.0794 44.1208 43.2151L42.7608 42.5051C43.6024 40.5923 44.035 38.5248 44.0309 36.4351C44.035 34.3453 43.6024 32.2778 42.7608 30.3651L44.1208 29.6551ZM28.8109 21.6551C31.315 21.6519 33.7789 22.2842 35.972 23.4927C38.1652 24.7012 40.0159 26.4465 41.3508 28.5651L40.7108 28.9051C40.4421 29.0475 40.2408 29.2905 40.1509 29.581C40.0609 29.8714 40.0896 30.1857 40.2308 30.4551C41.2172 32.301 41.7325 34.3621 41.7308 36.4551C41.7325 38.5481 41.2172 40.6091 40.2308 42.4551C40.0896 42.7244 40.0609 43.0387 40.1509 43.3291C40.2408 43.6196 40.4421 43.8626 40.7108 44.0051L41.3508 44.3451C40.0159 46.4636 38.1652 48.2089 35.972 49.4174C33.7789 50.6259 31.315 51.2582 28.8109 51.2551C24.8794 51.2498 21.1103 49.6856 18.3303 46.9056C15.5503 44.1256 13.9861 40.3566 13.9808 36.4251C13.9887 32.4953 15.5541 28.7288 18.3338 25.951C21.1136 23.1731 24.8811 21.6103 28.8109 21.6051V21.6551Z" fill="black"/>
<path d="M30.8808 11.945C31.8189 11.9424 32.7178 11.5685 33.3811 10.9052C34.0444 10.2419 34.4182 9.34305 34.4209 8.40499C34.4209 7.46612 34.0479 6.56571 33.384 5.90183C32.7201 5.23795 31.8197 4.86499 30.8808 4.86499C29.942 4.86499 29.0415 5.23795 28.3777 5.90183C27.7138 6.56571 27.3408 7.46612 27.3408 8.40499C27.3434 9.34305 27.7173 10.2419 28.3806 10.9052C29.0439 11.5685 29.9428 11.9424 30.8808 11.945ZM30.8808 7.15499C31.2124 7.15499 31.5303 7.28669 31.7647 7.52111C31.9992 7.75553 32.1308 8.07347 32.1308 8.40499C32.1282 8.73478 31.9953 9.05016 31.7612 9.28242C31.5271 9.51468 31.2106 9.645 30.8808 9.64499C30.5528 9.64237 30.2389 9.51089 30.0069 9.27891C29.775 9.04693 29.6435 8.73305 29.6408 8.40499C29.6408 8.0752 29.7711 7.75876 30.0034 7.52462C30.2357 7.29049 30.551 7.15763 30.8808 7.15499Z" fill="black"/>
<path d="M9.81047 7.255H7.48047V9.55501H9.81047V7.255Z" fill="black"/>
<path d="M14.4608 7.255H12.1308V9.55501H14.4608V7.255Z" fill="black"/>
<path d="M19.1205 7.255H16.7905V9.55501H19.1205V7.255Z" fill="black"/>
<path d="M43.4804 7.57495H41.1504V9.87495H43.4804V7.57495Z" fill="black"/>
<path d="M48.1405 7.57495H45.8105V9.87495H48.1405V7.57495Z" fill="black"/>
</g>
</g>
<defs>
<clipPath id="clip0_1_38">
<rect width="57" height="67" fill="white" transform="translate(0.640625 0.625)"/>
</clipPath>
</defs>
</svg>
