<svg width="60" height="59" viewBox="0 0 60 59" fill="none" xmlns="http://www.w3.org/2000/svg">
<g clip-path="url(#clip0_1_57)">
<mask id="mask0_1_57" style="mask-type:luminance" maskUnits="userSpaceOnUse" x="0" y="0" width="60" height="58">
<path d="M59.2475 0.125H0.9375V57.935H59.2475V0.125Z" fill="white"/>
</mask>
<g mask="url(#mask0_1_57)">
<path d="M14.1772 36.755C14.1799 40.8899 15.8229 44.8547 18.7457 47.7794C21.6686 50.7041 25.6324 52.3497 29.7672 52.355C33.903 52.3497 37.8678 50.7045 40.7922 47.7801C43.7167 44.8556 45.362 40.8908 45.3673 36.755C45.362 32.6193 43.7167 28.6544 40.7922 25.73C37.8678 22.8056 33.903 21.1603 29.7672 21.155C25.6324 21.1603 21.6686 22.8059 18.7457 25.7306C15.8229 28.6553 14.1799 32.6202 14.1772 36.755ZM43.0172 35.615H38.0172V37.905H43.0172C42.7446 41.0226 41.3823 43.9444 39.1694 46.1572C36.9566 48.3701 34.0348 49.7324 30.9172 50.005V45.005H28.6273V50.005C25.5098 49.7324 22.588 48.3701 20.3751 46.1572C18.1623 43.9444 16.7998 41.0226 16.5272 37.905H21.5272V35.615H16.5272C16.7998 32.4975 18.1623 29.5757 20.3751 27.3628C22.588 25.15 25.5098 23.7876 28.6273 23.515V26.635H30.9172V23.515C34.0285 23.7862 36.9455 25.1429 39.1575 27.3476C41.3695 29.5523 42.7357 32.4646 43.0172 35.575V35.615Z" fill="black"/>
<path d="M33.8573 27.755L30.2573 33.925C29.7836 33.8153 29.291 33.8153 28.8172 33.925C28.0106 34.1352 27.3201 34.6567 26.8972 35.375C26.6885 35.7324 26.5528 36.1277 26.4979 36.538C26.443 36.9482 26.4699 37.3653 26.5773 37.765C26.7875 38.5717 27.3089 39.2621 28.0272 39.685C28.511 39.9638 29.059 40.1119 29.6173 40.115C29.8875 40.1122 30.1562 40.0752 30.4172 40.005C30.8157 39.9017 31.1898 39.7204 31.5177 39.4715C31.8456 39.2226 32.1207 38.9111 32.3273 38.555C32.6317 38.0338 32.7794 37.4359 32.7528 36.8329C32.7262 36.2299 32.5264 35.6474 32.1772 35.155L35.8473 28.885L33.8573 27.755ZM30.3473 37.425C30.2356 37.6174 30.0522 37.7577 29.8373 37.815C29.7285 37.845 29.6148 37.8524 29.503 37.837C29.3913 37.8215 29.2838 37.7834 29.1872 37.725C28.997 37.6109 28.8575 37.4285 28.7972 37.215C28.7673 37.1062 28.7598 36.9925 28.7753 36.8807C28.7907 36.769 28.8288 36.6615 28.8872 36.565C29.0028 36.372 29.1895 36.232 29.4072 36.175C29.4769 36.1653 29.5476 36.1653 29.6173 36.175C29.769 36.1745 29.9178 36.216 30.0472 36.295C30.2402 36.4106 30.3803 36.5973 30.4372 36.815C30.4782 37.0096 30.4462 37.2125 30.3473 37.385V37.425Z" fill="black"/>
<path d="M25.2775 4.745H22.4775V7.045H25.2775V4.745Z" fill="black"/>
<path d="M31.0175 4.745H28.2275V7.045H31.0175V4.745Z" fill="black"/>
<path d="M36.7573 4.745H33.9673V7.045H36.7573V4.745Z" fill="black"/>
<path d="M46.4473 11.665C49.0053 11.6635 51.4731 10.7192 53.3788 9.01276C55.2845 7.30631 56.4944 4.95737 56.7772 2.415H59.2573V0.125H0.947266V2.415H3.44727C3.72993 4.95566 4.93845 7.30322 6.84204 9.00944C8.74563 10.7157 11.2109 11.661 13.7672 11.665H28.4473V15.545C22.8148 15.8813 17.523 18.3544 13.652 22.4596C9.78094 26.5648 7.62257 31.9925 7.61731 37.635V55.635H4.47729V57.935H54.7273V55.645H51.8872V37.645C51.8804 31.949 49.6805 26.4743 45.7441 22.3573C41.8078 18.2403 36.4373 15.7972 30.7473 15.535V11.675L46.4473 11.665ZM49.6273 37.665V55.665H9.93726V37.665C9.93068 35.0553 10.4385 32.4698 11.4318 30.0565C12.425 27.6431 13.8842 25.4492 15.7258 23.6001C17.5675 21.7511 19.7555 20.2831 22.1648 19.2801C24.5741 18.2772 27.1575 17.7589 29.7672 17.755C32.3761 17.7563 34.9592 18.2716 37.3689 19.2715C39.7786 20.2714 41.9677 21.7363 43.811 23.5825C45.6544 25.4286 47.1159 27.6199 48.1122 30.0311C49.1084 32.4423 49.6199 35.0261 49.6173 37.635L49.6273 37.665ZM5.72729 2.445H54.4473C54.18 4.37946 53.2237 6.15252 51.754 7.43847C50.2844 8.72442 48.4001 9.43689 46.4473 9.445H13.7473C11.7854 9.44101 9.8913 8.72684 8.41516 7.43453C6.93902 6.14221 5.98064 4.35915 5.71729 2.415L5.72729 2.445Z" fill="black"/>
</g>
</g>
<defs>
<clipPath id="clip0_1_57">
<rect width="59" height="58" fill="white" transform="translate(0.9375 0.125)"/>
</clipPath>
</defs>
</svg>
