<svg width="53" height="65" viewBox="0 0 53 65" fill="none" xmlns="http://www.w3.org/2000/svg">
<g clip-path="url(#clip0_1_24)">
<mask id="mask0_1_24" style="mask-type:luminance" maskUnits="userSpaceOnUse" x="0" y="0" width="53" height="64">
<path d="M52.5838 0.125H0.84375V63.675H52.5838V0.125Z" fill="white"/>
</mask>
<g mask="url(#mask0_1_24)">
<path d="M51.4336 0.125H2.02356C1.71856 0.125 1.42599 0.246159 1.21033 0.461826C0.99466 0.677493 0.873535 0.969999 0.873535 1.275V58.845C0.873535 59.15 0.99466 59.4425 1.21033 59.6582C1.42599 59.8738 1.71856 59.995 2.02356 59.995H5.35352V62.495C5.35218 62.6464 5.38103 62.7965 5.43835 62.9367C5.49568 63.0768 5.58032 63.2041 5.68738 63.3111C5.79443 63.4182 5.92176 63.5029 6.06189 63.5602C6.20202 63.6175 6.35215 63.6463 6.50354 63.645H46.5036C46.655 63.6463 46.805 63.6175 46.9451 63.5602C47.0854 63.5029 47.2127 63.4182 47.3198 63.3111C47.4268 63.2041 47.5114 63.0768 47.5687 62.9367C47.626 62.7965 47.6549 62.6464 47.6535 62.495V59.995H51.4336C51.7378 59.9924 52.0288 59.8704 52.2439 59.6553C52.459 59.4402 52.581 59.1492 52.5836 58.845V1.275C52.581 0.970807 52.459 0.679817 52.2439 0.464714C52.0288 0.249611 51.7378 0.127611 51.4336 0.125ZM3.14355 2.425H25.5636V57.695H3.14355V2.425ZM45.3635 61.425H7.61353V59.995H45.3635V61.425ZM50.2836 57.735H27.8636V2.425H50.2836V57.735Z" fill="black"/>
<path d="M35.4636 6.86499H33.1636V32.365H35.4636V6.86499Z" fill="black"/>
<path d="M32.6236 47.895L33.7735 49.895L37.9235 47.495V52.285H40.2235V47.495L44.3635 49.885L45.5135 47.885L41.3635 45.495L45.5135 43.095L44.3635 41.095L40.2136 43.495V38.705H37.9235V43.495L33.7735 41.105L32.6236 43.105L36.7735 45.505L32.6236 47.895ZM36.9035 45.505L37.9836 43.625H40.1535L41.2435 45.505L40.1535 47.385H38.0235L36.9035 45.505Z" fill="black"/>
<path d="M20.2736 6.86499H17.9736V32.365H20.2736V6.86499Z" fill="black"/>
<path d="M13.5536 5.245H10.9736V7.545H13.5536V5.245Z" fill="black"/>
<path d="M7.92375 5.245H5.34375V7.545H7.92375V5.245Z" fill="black"/>
</g>
</g>
<defs>
<clipPath id="clip0_1_24">
<rect width="52" height="64" fill="white" transform="translate(0.84375 0.125)"/>
</clipPath>
</defs>
</svg>
