<svg width="61" height="53" viewBox="0 0 61 53" fill="none" xmlns="http://www.w3.org/2000/svg">
<g clip-path="url(#clip0_1_86)">
<mask id="mask0_1_86" style="mask-type:luminance" maskUnits="userSpaceOnUse" x="0" y="0" width="60" height="52">
<path d="M59.4906 0.125H0.140625V51.355H59.4906V0.125Z" fill="white"/>
</mask>
<g mask="url(#mask0_1_86)">
<path d="M41.3104 43.925H38.7304V46.225H41.3104V43.925Z" fill="black"/>
<path d="M35.6806 43.925H33.1006V46.225H35.6806V43.925Z" fill="black"/>
<path d="M46.9408 43.925H44.3608V46.225H46.9408V43.925Z" fill="black"/>
<path d="M52.5805 43.925H50.0005V46.225H52.5805V43.925Z" fill="black"/>
<path d="M58.3508 51.355H1.29075C1.13677 51.3565 0.98417 51.3267 0.842014 51.2676C0.699859 51.2084 0.571188 51.121 0.463719 51.0107C0.35625 50.9005 0.272142 50.7696 0.216648 50.6259C0.161155 50.4823 0.135433 50.3289 0.140843 50.175V1.27504C0.139509 1.12365 0.168239 0.973511 0.225559 0.833384C0.28288 0.693257 0.367529 0.565953 0.474583 0.458899C0.581637 0.351845 0.708968 0.267185 0.849095 0.209864C0.989221 0.152544 1.13935 0.12371 1.29075 0.125044H58.3508C58.5013 0.125038 58.6504 0.154852 58.7894 0.212767C58.9283 0.270682 59.0545 0.355549 59.1605 0.462469C59.2665 0.56939 59.3501 0.696243 59.4068 0.835711C59.4635 0.975178 59.4921 1.1245 59.4908 1.27504V50.175C59.4962 50.3281 59.4706 50.4806 59.4157 50.6236C59.3608 50.7666 59.2777 50.897 59.1713 51.0071C59.0649 51.1173 58.9374 51.2048 58.7965 51.2646C58.6555 51.3244 58.5039 51.3551 58.3508 51.355ZM2.43075 49.065H57.2008V2.42504H2.43075V49.065Z" fill="black"/>
<path d="M15.8305 43.925C13.187 43.9251 10.651 42.8784 8.7771 41.0138C6.90317 39.1492 5.84379 36.6185 5.83057 33.975C5.84379 31.3315 6.90317 28.8008 8.7771 26.9363C10.651 25.0717 13.187 24.025 15.8305 24.025C18.4827 24.025 21.0262 25.0786 22.9016 26.954C24.777 28.8293 25.8305 31.3729 25.8305 34.025C25.8042 36.6598 24.7389 39.1777 22.8664 41.0315C20.9939 42.8853 18.4655 43.9252 15.8305 43.925ZM15.8305 26.315C13.7998 26.3177 11.8529 27.1256 10.417 28.5615C8.98104 29.9975 8.17318 31.9443 8.17054 33.975C8.17318 36.0058 8.98104 37.9526 10.417 39.3885C11.8529 40.8245 13.7998 41.6324 15.8305 41.635C17.8613 41.6324 19.8082 40.8245 21.2441 39.3885C22.6801 37.9526 23.4879 36.0058 23.4906 33.975C23.4879 31.9443 22.6801 29.9975 21.2441 28.5615C19.8082 27.1256 17.8613 26.3177 15.8305 26.315Z" fill="black"/>
<path d="M44.3607 40.4251C42.6509 40.4224 41.0117 39.742 39.8027 38.533C38.5937 37.3239 37.9133 35.6849 37.9106 33.9751C37.9133 32.2652 38.5937 30.6262 39.8027 29.4171C41.0117 28.2081 42.6509 27.5277 44.3607 27.5251C45.2094 27.5224 46.0502 27.6873 46.8351 28.0103C47.6199 28.3332 48.3334 28.8079 48.9344 29.4071C49.5355 30.0063 50.0124 30.7183 50.3377 31.5021C50.6631 32.286 50.8307 33.1263 50.8307 33.9751C50.8307 34.8238 50.6631 35.6641 50.3377 36.448C50.0124 37.2318 49.5355 37.9438 48.9344 38.543C48.3334 39.1422 47.6199 39.6169 46.8351 39.9398C46.0502 40.2628 45.2094 40.4277 44.3607 40.4251ZM44.3607 29.8151C43.2591 29.8177 42.2035 30.2572 41.4255 31.037C40.6475 31.8169 40.2107 32.8735 40.2107 33.9751C40.2054 34.5239 40.3088 35.0683 40.5149 35.577C40.7209 36.0857 41.0256 36.5486 41.4114 36.939C41.7971 37.3294 42.2562 37.6396 42.7624 37.8517C43.2686 38.0639 43.8119 38.1738 44.3607 38.1751C45.4632 38.1724 46.5197 37.7333 47.2993 36.9537C48.0789 36.1741 48.518 35.1175 48.5206 34.0151C48.5246 33.4658 48.42 32.9211 48.2129 32.4124C48.0057 31.9036 47.7 31.4408 47.3135 31.0505C46.9269 30.6603 46.467 30.3502 45.9603 30.1382C45.4536 29.9262 44.91 29.8164 44.3607 29.8151Z" fill="black"/>
<path d="M43.6605 20.685H36.9105C34.8188 20.6824 32.8135 19.8503 31.3344 18.3712C29.8554 16.8921 29.0231 14.8868 29.0205 12.795C29.0205 10.7015 29.8515 8.69366 31.3309 7.21241C32.8103 5.73116 34.817 4.89767 36.9105 4.89502H43.6605C44.6979 4.89502 45.7252 5.09936 46.6837 5.49637C47.6422 5.89338 48.5131 6.47529 49.2467 7.20887C49.9803 7.94246 50.5622 8.81335 50.9592 9.77182C51.3562 10.7303 51.5605 11.7576 51.5605 12.795C51.5579 14.8885 50.7244 16.8953 49.2431 18.3747C47.7619 19.8541 45.754 20.685 43.6605 20.685ZM36.9105 7.17502C35.4261 7.17766 34.0033 7.76851 32.9537 8.81814C31.9041 9.86777 31.3132 11.2906 31.3105 12.775C31.3158 14.2586 31.9075 15.6799 32.9565 16.729C34.0056 17.7781 35.4269 18.3697 36.9105 18.375H43.6605C45.1449 18.3724 46.5678 17.7815 47.6174 16.7319C48.667 15.6823 49.258 14.2594 49.2606 12.775C49.2606 11.2898 48.6705 9.86542 47.6203 8.81522C46.5701 7.76502 45.1457 7.17502 43.6605 7.17502H36.9105Z" fill="black"/>
<path d="M15.8304 20.685C13.7387 20.6824 11.7333 19.8503 10.2542 18.3712C8.77518 16.8921 7.94307 14.8868 7.94042 12.795C7.94042 10.7015 8.77135 8.69366 10.2507 7.21241C11.7301 5.73116 13.7369 4.89767 15.8304 4.89502C17.9256 4.89502 19.9351 5.72734 21.4166 7.20887C22.8981 8.69041 23.7304 10.6998 23.7304 12.795C23.7278 14.8885 22.8943 16.8953 21.4131 18.3747C19.9318 19.8541 17.9239 20.685 15.8304 20.685ZM15.8304 7.17502C14.346 7.17766 12.9231 7.76851 11.8735 8.81814C10.8239 9.86777 10.2331 11.2906 10.2304 12.775C10.2357 14.2586 10.8274 15.6799 11.8764 16.729C12.9255 17.7781 14.3468 18.3697 15.8304 18.375C17.3148 18.3724 18.7377 17.7815 19.7873 16.7319C20.837 15.6823 21.4278 14.2594 21.4304 12.775C21.4304 11.2898 20.8405 9.86542 19.7903 8.81522C18.7401 7.76502 17.3156 7.17502 15.8304 7.17502Z" fill="black"/>
<path d="M15.8305 39.435C14.3833 39.4324 12.996 38.8563 11.9726 37.8329C10.9493 36.8095 10.3732 35.4223 10.3706 33.975C10.3732 32.5277 10.9493 31.1405 11.9726 30.1171C12.996 29.0938 14.3833 28.5177 15.8305 28.515C17.2778 28.5177 18.6651 29.0938 19.6885 30.1171C20.7118 31.1405 21.2879 32.5277 21.2905 33.975C21.2879 35.4223 20.7118 36.8095 19.6885 37.8329C18.6651 38.8563 17.2778 39.4324 15.8305 39.435ZM15.8305 30.805C14.9915 30.8077 14.1878 31.1428 13.5954 31.737C13.0031 32.3312 12.6705 33.136 12.6705 33.975C12.6665 34.393 12.7453 34.8076 12.9022 35.195C13.0591 35.5824 13.2911 35.935 13.5848 36.2324C13.8785 36.5298 14.2281 36.7662 14.6135 36.928C14.9989 37.0898 15.4126 37.1737 15.8305 37.175C16.6713 37.175 17.4776 36.841 18.0721 36.2465C18.6666 35.6521 19.0006 34.8458 19.0006 34.005C19.0045 33.5862 18.9255 33.1708 18.7679 32.7827C18.6104 32.3946 18.3775 32.0416 18.0827 31.7441C17.788 31.4465 17.4372 31.2103 17.0506 31.0492C16.6641 30.888 16.2494 30.805 15.8305 30.805Z" fill="black"/>
</g>
</g>
<defs>
<clipPath id="clip0_1_86">
<rect width="60" height="52" fill="white" transform="translate(0.140625 0.125)"/>
</clipPath>
</defs>
</svg>
